<svg id="Capa_1" enable-background="new 0 0 511.992 511.992" height="512" viewBox="0 0 511.992 511.992" width="512" xmlns="http://www.w3.org/2000/svg"><g><path d="m190 185.996c-38.598 0-70 31.402-70 70s31.402 70 70 70 70-31.402 70-70-31.402-70-70-70zm0 120c-27.57 0-50-22.43-50-50s22.43-50 50-50 50 22.43 50 50-22.43 50-50 50z"/><path d="m502.002 125.996c-17.183 0-301.622 0-312.002 0-57.703 0-106.737 37.794-123.671 89.925-7.041-6.172-16.252-9.925-26.329-9.925-22.056 0-40 17.944-40 40s17.944 40 40 40c8.165 0 15.763-2.464 22.099-6.68 11.02 60.592 64.178 106.68 127.901 106.68 71.683 0 130-58.318 130-130v-10h182c5.522 0 9.99-4.477 9.99-10l.002-100c0-5.52-4.468-10-9.99-10zm-462.002 140c-11.028 0-20-8.972-20-20s8.972-20 20-20 20 8.972 20 20-8.972 20-20 20zm452-40h-182c-5.522 0-10 4.477-10 10v20c0 60.654-49.346 110-110 110s-110-49.346-110-110 49.346-110 110-110h110v30c0 5.523 4.478 10 10 10h60c5.522 0 10-4.477 10-10v-30h112.002z"/></g></svg>